<?xml version="1.0"?>
<svg xmlns="http://www.w3.org/2000/svg" xmlns:xlink="http://www.w3.org/1999/xlink" xmlns:svgjs="http://svgjs.com/svgjs" version="1.1" width="512" height="512" x="0" y="0" viewBox="0 0 480 480" style="enable-background:new 0 0 512 512" xml:space="preserve" class=""><g><path xmlns="http://www.w3.org/2000/svg" d="m464 112h-368c-8.835938 0-16 7.164062-16 16v240c0 8.835938 7.164062 16 16 16h128v41.449219l-33.601562 6.710937c-3.722657.761719-6.398438 4.039063-6.398438 7.839844v24c0 4.417969 3.582031 8 8 8h184c4.417969 0 8-3.582031 8-8v-24c0-3.800781-2.675781-7.078125-6.398438-7.839844l-33.601562-6.710937v-41.449219h120c8.835938 0 16-7.164062 16-16v-240c0-8.835938-7.164062-16-16-16zm-368 16h368v192h-368zm272 318.550781v9.449219h-168v-9.449219l33.601562-6.710937c3.722657-.761719 6.398438-4.039063 6.398438-7.839844v-48h88v48c0 3.800781 2.675781 7.078125 6.398438 7.839844zm-32-78.550781h-240v-32h368v32zm0 0" fill="#ffffff" data-original="#000000" style=""/><path xmlns="http://www.w3.org/2000/svg" d="m64 376v-288c0-4.417969-3.582031-8-8-8h-48c-4.417969 0-8 3.582031-8 8v288c0 4.417969 3.582031 8 8 8h48c4.417969 0 8-3.582031 8-8zm-16-264h-16v16h16v16h-16v16h16v16h-16v16h16v16h-16v16h16v16h-16v16h16v16h-16v16h16v16h-16v16h16v16h-16v16h16v16h-32v-272h32zm0 0" fill="#ffffff" data-original="#000000" style=""/><path xmlns="http://www.w3.org/2000/svg" d="m472 16h-288v-8c0-4.417969-3.582031-8-8-8s-8 3.582031-8 8v4.183594l-29.023438-11.617188c-2.453124-.972656-5.226562-.671875-7.417968.800782l-48 32c-2.222656 1.484374-3.558594 3.980468-3.558594 6.65625 0 2.675781 1.335938 5.171874 3.558594 6.65625l48 32c2.191406 1.472656 4.964844 1.773437 7.417968.800781l29.023438-11.664063v4.183594c0 4.417969 3.582031 8 8 8s8-3.582031 8-8v-8h288c4.417969 0 8-3.582031 8-8v-32c0-4.417969-3.582031-8-8-8zm-304 34.585938-31.0625 12.421874-22.539062-15.007812h29.601562v-16h-29.601562l22.511718-15.007812 31.089844 12.421874zm64-2.585938h-48v-16h48zm232 0h-216v-16h216zm0 0" fill="#ffffff" data-original="#000000" style=""/></g></svg>
